:SAMPLES-PER-SECOND 30
:FULLY-SPECIFIED
:DEGREES
389
root  31.3375 36.0395 -4.95826 -7.5128 -85.8122 10.7521
RightUpLeg  -35.676 -6.39194 4.04004
RightLeg  50.9795 -7.72971 -10.4714
RightFoot  -17.8138 -0.23421 -2.08801
RightToes  -4.65663e-010 0 -3.6325e-017
Spine  32.0021 -5.26489 12.2365
Spine1  6.02162 -3.35549 4.72427
HEad  -15.7011 1.37154 -11.2882
LeftShoulder1  10.1845 -14.7586 -48.6896
LeftArm  -0.740986 -4.53987 -34.5125
LeftForeArm  36.2645 -29.8619 -4.50343
LeftHand  -0.244104 0.0205437 5.32207
RightShoulder  6.66815 11.2458 39.1161
RightArm  1.36993 -12.2203 33.3205
RightForeArm  -12.1064 21.1716 5.69073
RightHand  -4.08703 11.2325 -28.3093
LeftUpLeg  -4.14389 11.4964 -2.28627
LeftLeg  54.6643 4.34192 7.05766
LeftFoot  -10.6259 0.0706106 -10.3936
LeftToes  -5.82109e-011 -4.83791e-012 -1.00937e-011
390
root  29.633 35.2611 -4.95431 13.7321 -86.3256 -11.0192
RightUpLeg  -34.8376 -6.0074 5.7143
RightLeg  56.5922 -7.05893 -11.8084
RightFoot  -22.724 -0.237425 -0.844595
RightToes  -4.65663e-010 0 -3.6325e-017
Spine  32.947 -5.71092 14.3482
Spine1  5.86339 -2.98001 4.9754
HEad  -17.0859 1.63782 -11.8619
LeftShoulder1  10.2031 -14.7811 -48.7186
LeftArm  -2.22159 -3.20328 -34.4297
LeftForeArm  35.0464 -28.7797 -4.32512
LeftHand  -0.244104 0.0205437 5.32207
RightShoulder  6.83997 11.4179 39.7152
RightArm  0.273732 -7.10144 31.3977
RightForeArm  -13.0895 22.7154 5.6394
RightHand  -4.60568 12.5883 -29.4308
LeftUpLeg  -11.8074 9.05804 -0.787051
LeftLeg  69.5887 2.66052 8.7823
LeftFoot  -2.45124 0.352718 -4.04904
LeftToes  -5.82109e-011 -4.83791e-012 -1.00937e-011
391
root  27.824 34.5893 -4.93768 37.1304 -85.8697 -35.0336
RightUpLeg  -32.713 -6.60121 7.50069
RightLeg  60.6999 -6.34542 -12.5899
RightFoot  -27.5966 -0.169291 0.135747
RightToes  -4.65663e-010 0 -3.6325e-017
Spine  32.8598 -6.2333 16.5182
Spine1  6.19948 -2.81649 5.17089
HEad  -18.5483 1.88446 -12.8336
LeftShoulder1  10.2972 -14.8652 -48.9445
LeftArm  -2.70647 -0.869292 -33.3372
LeftForeArm  34.2265 -26.7065 -3.9048
LeftHand  -0.244104 0.0205437 5.32207
RightShoulder  6.85895 11.4682 39.6887
RightArm  -1.73432 -1.13675 29.9773
RightForeArm  -12.6429 24.9867 5.95877
RightHand  -4.89768 13.2747 -30.1039
LeftUpLeg  -19.7899 5.53494 0.672891
LeftLeg  81.4057 0.978157 10.5745
LeftFoot  -1.24765 -0.0557126 0.883579
LeftToes  -5.82109e-011 -4.83791e-012 -1.00937e-011
392
root  25.836 34.2512 -4.95391 46.6989 -85.5593 -45.013
RightUpLeg  -29.097 -7.52199 8.22217
RightLeg  62.4317 -5.83445 -12.5462
RightFoot  -31.7561 -0.0796503 0.759678
RightToes  -4.65663e-010 0 -3.6325e-017
Spine  32.1168 -6.08376 17.3348
Spine1  6.22336 -2.47506 5.25932
HEad  -19.785 1.81757 -13.5264
LeftShoulder1  10.3332 -14.976 -48.8205
LeftArm  -2.04003 2.74283 -31.5509
LeftForeArm  34.8468 -23.752 -3.35534
LeftHand  -0.244104 0.0205437 5.32207
RightShoulder  6.59844 11.1784 38.855
RightArm  -4.51613 4.69853 29.713
RightForeArm  -10.3721 28.238 6.63917
RightHand  -4.86364 12.9663 -30.3791
LeftUpLeg  -28.141 2.08792 1.73308
LeftLeg  88.2874 -0.299021 11.6344
LeftFoot  -3.69144 -0.147661 2.48357
LeftToes  -5.82109e-011 -4.83791e-012 -1.00937e-011
393
root  23.6923 34.2889 -5.04403 47.8878 -86.2486 -46.4631
RightUpLeg  -24.0158 -8.3206 7.47235
RightLeg  61.4802 -5.66492 -11.726
RightFoot  -34.7831 0.0339696 1.30938
RightToes  -4.65663e-010 0 -3.6325e-017
Spine  31.1796 -5.04449 16.5875
Spine1  5.68354 -1.64502 4.91372
HEad  -20.32 1.265 -13.3266
LeftShoulder1  10.2256 -14.9515 -48.3723
LeftArm  -2.28715 7.83747 -28.8705
LeftForeArm  37.1368 -20.8925 -3.3101
LeftHand  -0.244104 0.0205437 5.32207
RightShoulder  6.14031 10.592 37.5326
RightArm  -7.25794 8.82374 30.5064
RightForeArm  -6.71479 33.5594 7.84974
RightHand  -4.66246 12.0742 -30.5978
LeftUpLeg  -36.3469 -0.295125 2.22428
LeftLeg  89.8269 -0.630227 11.2102
LeftFoot  -6.32993 -0.0541414 2.10393
LeftToes  -5.82109e-011 -4.83791e-012 -1.00937e-011
394
root  21.34 34.7989 -5.18892 28.3335 -87.5902 -27.1913
RightUpLeg  -17.04 -8.97474 5.1627
RightLeg  57.1694 -5.87073 -10.1863
RightFoot  -36.2236 0.163405 1.85347
RightToes  -4.65663e-010 0 -3.6325e-017
Spine  29.8506 -3.41564 14.6584
Spine1  5.12575 -0.445523 3.78434
HEad  -19.7501 0.163678 -12.1645
LeftShoulder1  10.004 -14.7034 -47.9654
LeftArm  -3.97719 14.0069 -24.9842
LeftForeArm  37.8266 -18.7 -3.71467
LeftHand  -0.244104 0.0205437 5.32207
RightShoulder  5.77979 10.0999 36.4958
RightArm  -9.3504 10.0652 31.2952
RightForeArm  -2.81392 41.0993 9.97215
RightHand  -4.54058 11.4027 -30.9643
LeftUpLeg  -42.8575 -1.22726 1.50529
LeftLeg  86.3073 0.0974544 11.3742
LeftFoot  -8.70926 0.0138607 1.65432
LeftToes  -5.82109e-011 -4.83791e-012 -1.00937e-011
395
root  18.7401 35.8106 -5.3436 -28.4208 -87.99 29.4428
RightUpLeg  -8.53959 -9.29028 1.67741
RightLeg  49.4226 -5.90864 -7.74431
RightFoot  -34.8062 0.397051 3.06004
RightToes  -4.65663e-010 0 -3.6325e-017
Spine  27.8053 -1.45931 12.1211
Spine1  4.63643 1.01248 1.9278
HEad  -17.4591 -1.50439 -10.382
LeftShoulder1  9.65663 -14.2592 -47.449
LeftArm  -6.06603 20.4083 -20.4971
LeftForeArm  34.4031 -16.5889 -4.04112
LeftHand  -0.244104 0.0205437 5.32207
RightShoulder  5.6226 9.84047 36.151
RightArm  -10.4572 8.40451 31.5423
RightForeArm  0.505126 48.9927 12.906
RightHand  -4.62879 11.4783 -31.3969
LeftUpLeg  -46.8205 -0.777873 -0.662804
LeftLeg  78.5063 2.03829 13.2869
LeftFoot  -11.0482 0.0635356 0.998673
LeftToes  -5.82109e-011 -4.83791e-012 -1.00937e-011
396
root  15.9282 37.1255 -5.47448 -67.2498 -86.5551 68.6751
RightUpLeg  -0.245647 -8.97814 -1.80536
RightLeg  39.8874 -4.77617 -4.58497
RightFoot  -28.2769 0.633628 5.69446
RightToes  -4.65663e-010 0 -3.6325e-017
Spine  25.2513 0.725707 9.86268
Spine1  3.4402 2.83863 -0.405431
HEad  -12.977 -3.54793 -8.41413
LeftShoulder1  9.07031 -13.6451 -46.1286
LeftArm  -8.39311 26.6008 -16.4785
LeftForeArm  29.3878 -14.4128 -3.96565
LeftHand  -0.244104 0.0205437 5.32207
RightShoulder  5.50706 9.53863 36.2381
RightArm  -10.4041 4.78458 31.8369
RightForeArm  3.22089 55.1399 16.0304
RightHand  -4.79425 11.9327 -31.6539
LeftUpLeg  -48.681 1.08711 -3.47861
LeftLeg  67.7737 5.13192 14.3898
LeftFoot  -11.971 0.0740261 0.303582
LeftToes  -5.82109e-011 -4.83791e-012 -1.00937e-011
397
root  13.0271 38.4476 -5.56677 -79.5144 -85.8816 81.7958
RightUpLeg  5.72605 -8.33593 -4.06769
RightLeg  31.9005 -2.4771 -1.89524
RightFoot  -15.7249 0.225959 8.85431
RightToes  -4.65663e-010 0 -3.6325e-017
Spine  22.6363 2.90803 8.72933
Spine1  1.52809 4.94861 -2.95449
HEad  -6.92959 -5.4688 -6.58971
LeftShoulder1  8.2081 -12.8431 -43.6914
LeftArm  -9.71256 32.5524 -13.2168
LeftForeArm  25.2572 -13.1021 -3.37423
LeftHand  -0.244104 0.0205437 5.32207
RightShoulder  5.31411 9.09314 36.1996
RightArm  -9.09683 0.561044 32.751
RightForeArm  5.47728 59.1109 18.7012
RightHand  -4.67538 11.7064 -31.2962
LeftUpLeg  -49.0114 4.17387 -5.88853
LeftLeg  55.3096 7.48522 12.0539
LeftFoot  -11.218 0.0676062 -0.0888213
LeftToes  -5.82109e-011 -4.83791e-012 -1.00937e-011
398
root  10.1403 39.5175 -5.60715 -95.6141 -86.5424 98.6495
RightUpLeg  8.50773 -8.22126 -4.95058
RightLeg  28.9902 -0.551057 -0.53393
RightFoot  -1.73731 -0.867583 10.405
RightToes  -4.65663e-010 0 -3.6325e-017
Spine  19.7449 4.8023 8.75281
Spine1  0.408525 6.92494 -4.90125
HEad  -1.08526 -6.71859 -5.10672
LeftShoulder1  7.17011 -11.7923 -40.5868
LeftArm  -9.29243 38.1143 -10.2009
LeftForeArm  22.1847 -12.9323 -2.83239
LeftHand  -0.244104 0.0205437 5.32207
RightShoulder  5.05415 8.68021 35.5107
RightArm  -6.52863 -2.75002 34.2313
RightForeArm  7.63313 61.691 20.8046
RightHand  -4.10593 10.3064 -30.0018
LeftUpLeg  -47.8999 7.74234 -7.28329
LeftLeg  41.997 6.99743 7.15122
LeftFoot  -9.95569 0.0813122 -1.58261
LeftToes  -5.82109e-011 -4.83791e-012 -1.00937e-011
399
root  7.24572 40.2044 -5.59591 -123.385 -87.3841 126.536
RightUpLeg  9.29141 -8.94141 -5.49979
RightLeg  32.4752 -0.836673 -0.85321
RightFoot  6.11981 -1.46769 9.82666
RightToes  -4.65663e-010 0 -3.6325e-017
Spine  16.2281 6.25643 8.80321
Spine1  1.30591 8.28308 -5.34751
HEad  2.97171 -7.0225 -4.04085
LeftShoulder1  6.001 -10.3374 -37.2147
LeftArm  -8.15581 43.3254 -7.40581
LeftForeArm  19.8348 -13.7538 -2.48317
LeftHand  -0.244104 0.0205437 5.32207
RightShoulder  4.68738 8.27174 33.8535
RightArm  -2.85705 -4.03347 36.3661
RightForeArm  10.439 63.7311 22.6603
RightHand  -3.30344 8.23316 -27.9142
LeftUpLeg  -45.4049 11.1691 -8.2421
LeftLeg  29.0331 4.08639 2.93344
LeftFoot  -8.30406 0.152084 -3.86337
LeftToes  -5.82109e-011 -4.83791e-012 -1.00937e-011
400
root  4.31523 40.5144 -5.54352 -151.484 -87.5042 153.908
RightUpLeg  9.65882 -9.85819 -6.60314
RightLeg  40.6486 -3.37576 -3.44356
RightFoot  6.75666 -1.2573 8.14316
RightToes  -4.65663e-010 0 -3.6325e-017
Spine  12.7192 7.07776 8.39322
Spine1  3.52026 8.91514 -4.90798
HEad  5.3012 -6.59027 -3.30454
LeftShoulder1  4.75151 -8.48187 -33.568
LeftArm  -8.10834 48.4175 -5.14767
LeftForeArm  19.3425 -15.7535 -2.16361
LeftHand  -0.244104 0.0205437 5.32207
RightShoulder  4.21444 7.74721 31.5095
RightArm  1.0294 -3.73859 39.3735
RightForeArm  15.0853 65.9546 24.8894
RightHand  -2.51351 6.04253 -25.4083
LeftUpLeg  -41.5126 12.7534 -8.22607
LeftLeg  17.7368 3.05005 0.619821
LeftFoot  -6.89086 0.222073 -4.67215
LeftToes  -5.82109e-011 -4.83791e-012 -1.00937e-011
401
root  1.37133 40.4493 -5.43932 -173.558 -87.0786 174.542
RightUpLeg  10.322 -10.1298 -7.89797
RightLeg  49.6939 -5.70335 -7.49404
RightFoot  4.85086 -0.881175 6.42349
RightToes  -4.65663e-010 0 -3.6325e-017
Spine  10.0724 7.54523 8.87785
Spine1  5.60233 9.5409 -5.3299
HEad  7.53066 -6.12025 -2.79877
LeftShoulder1  3.68302 -6.77263 -29.7574
LeftArm  -9.33077 53.0175 -3.05629
LeftForeArm  21.7049 -18.225 -2.12091
LeftHand  -0.244104 0.0205437 5.32207
RightShoulder  3.81963 7.33834 29.2578
RightArm  3.74284 -3.97829 42.491
RightForeArm  22.5662 68.9658 28.6605
RightHand  -1.87554 4.06409 -23.0178
LeftUpLeg  -35.7549 8.22019 -3.10043
LeftLeg  9.01512 10.4544 -1.8954
LeftFoot  -7.75037 0.189998 -4.67255
LeftToes  -5.82109e-011 -4.83791e-012 -1.00937e-011
402
root  -1.59413 39.9683 -5.25769 162.568 -85.5279 -163.339
RightUpLeg  10.7167 -9.25588 -8.50273
RightLeg  57.383 -6.30457 -10.9026
RightFoot  3.04006 -0.620869 5.08322
RightToes  -4.65663e-010 0 -3.6325e-017
Spine  8.2358 8.32594 11.3956
Spine1  6.72623 10.8598 -6.76281
HEad  10.9541 -5.97399 -2.59626
LeftShoulder1  2.97415 -5.79395 -25.7946
LeftArm  -9.69218 56.766 -0.9819
LeftForeArm  25.1194 -19.8445 -2.33296
LeftHand  -0.244104 0.0205437 5.32207
RightShoulder  3.61211 7.30526 27.3956
RightArm  4.98878 -6.38372 44.5487
RightForeArm  32.2506 72.5628 35.3067
RightHand  -1.53742 2.89827 -21.563
LeftUpLeg  -29.8831 3.51108 2.05351
LeftLeg  3.27145 18.0795 -4.1654
LeftFoot  -9.71525 0.148088 -5.778
LeftToes  -5.82109e-011 -4.83791e-012 -1.00937e-011
403
root  -4.53481 39.0804 -5.06413 153.164 -83.413 -155.5
RightUpLeg  9.9485 -7.85776 -9.07201
RightLeg  64.2054 -5.85472 -13.5898
RightFoot  0.634941 -0.434542 4.18442
RightToes  -4.65663e-010 0 -3.6325e-017
Spine  6.91437 9.30226 13.1892
Spine1  6.68106 12.0655 -7.1298
HEad  14.4001 -5.38267 -2.76467
LeftShoulder1  2.47189 -5.246 -21.8356
LeftArm  -8.26697 60.0998 0.171384
LeftForeArm  26.9764 -20.6104 -2.54069
LeftHand  -0.244104 0.0205437 5.32207
RightShoulder  3.47629 7.37754 25.8625
RightArm  5.98004 -9.78105 45.5363
RightForeArm  41.5641 75.4601 44.0769
RightHand  -1.54148 2.96315 -21.4309
LeftUpLeg  -25.888 4.85991 2.74468
LeftLeg  2.93067 19.1919 -4.27298
LeftFoot  -7.76963 0.210452 -5.58251
LeftToes  -5.82109e-011 -4.83791e-012 -1.00937e-011
